<svg width="118" height="19" viewBox="0 0 118 19" fill="none" xmlns="http://www.w3.org/2000/svg">
<g clip-path="url(#clip0_38_15)">
<path fill-rule="evenodd" clip-rule="evenodd" d="M10.7379 14.0551L4.9703 17.8345L6.78237 11.1812L1.4057 6.86377L8.29327 6.53118L10.7379 0.0834961L13.1826 6.53118L20.0702 6.86377L14.6935 11.1812L16.5056 17.8345L10.7379 14.0551Z" fill="#FFC54F"/>
</g>
<g clip-path="url(#clip1_38_15)">
<path fill-rule="evenodd" clip-rule="evenodd" d="M35.0861 14.0551L29.3184 17.8345L31.1305 11.1812L25.7538 6.86377L32.6414 6.53118L35.0861 0.0834961L37.5308 6.53118L44.4183 6.86377L39.0417 11.1812L40.8537 17.8345L35.0861 14.0551Z" fill="#FFC54F"/>
</g>
<g clip-path="url(#clip2_38_15)">
<path fill-rule="evenodd" clip-rule="evenodd" d="M59.4342 14.0551L53.6666 17.8345L55.4787 11.1812L50.102 6.86377L56.9896 6.53118L59.4342 0.0834961L61.8789 6.53118L68.7665 6.86377L63.3898 11.1812L65.2019 17.8345L59.4342 14.0551Z" fill="#FFC54F"/>
</g>
<g clip-path="url(#clip3_38_15)">
<path fill-rule="evenodd" clip-rule="evenodd" d="M83.7824 14.0551L78.0147 17.8345L79.8268 11.1812L74.4501 6.86377L81.3377 6.53118L83.7824 0.0834961L86.2271 6.53118L93.1146 6.86377L87.7379 11.1812L89.55 17.8345L83.7824 14.0551Z" fill="#FFC54F"/>
</g>
<g clip-path="url(#clip4_38_15)">
<path fill-rule="evenodd" clip-rule="evenodd" d="M108.13 14.0551L102.363 17.8345L104.175 11.1812L98.7982 6.86377L105.686 6.53118L108.13 0.0834961L110.575 6.53118L117.463 6.86377L112.086 11.1812L113.898 17.8345L108.13 14.0551Z" fill="#FFC54F"/>
</g>
<defs>
<clipPath id="clip0_38_15">
<rect width="19.625" height="17.9896" fill="white" transform="translate(0.925415 0.0834961)"/>
</clipPath>
<clipPath id="clip1_38_15">
<rect width="19.625" height="17.9896" fill="white" transform="translate(25.2736 0.0834961)"/>
</clipPath>
<clipPath id="clip2_38_15">
<rect width="19.625" height="17.9896" fill="white" transform="translate(49.6217 0.0834961)"/>
</clipPath>
<clipPath id="clip3_38_15">
<rect width="19.625" height="17.9896" fill="white" transform="translate(73.9698 0.0834961)"/>
</clipPath>
<clipPath id="clip4_38_15">
<rect width="19.625" height="17.9896" fill="white" transform="translate(98.3179 0.0834961)"/>
</clipPath>
</defs>
</svg>
